P2
100 100
255
255 255 255 255 255 255 255 255 255 255 255 255 255 255 255 255 255 255 255 255 255 255 255 255 255 255 255 255 255 255 255 255 255 255 255 255 255 255 255 255 255 255 255 255 255 255 255 255 255 255 255 255 255 255 255 255 255 255 255 255 255 255 255 255 255 255 255 255 255 255 255 255 255 255 255 255 255 255 255 255 255 255 255 255 255 255 255 255 255 255 255 255 255 255 255 255 255 255 255 255 
255 255 255 255 255 255 255 255 255 255 255 255 255 255 255 255 255 255 255 255 255 255 255 255 255 255 255 255 255 255 255 255 255 255 255 255 255 255 255 255 255 255 255 255 255 255 255 255 255 255 255 255 255 255 255 255 255 255 255 255 255 255 255 255 255 255 255 255 255 255 255 255 255 255 255 255 255 255 255 255 255 255 255 255 255 255 255 255 255 255 255 255 255 255 255 255 255 255 255 255 
255 255 255 255 255 255 255 255 255 255 255 255 255 255 255 255 255 255 255 255 255 255 255 255 255 255 255 255 255 255 255 255 255 255 255 255 255 255 255 255 255 255 255 255 255 255 255 255 255 255 255 255 255 255 255 255 255 255 255 255 255 255 255 255 255 255 255 255 255 255 255 255 255 255 255 255 255 255 255 255 255 255 255 255 255 255 255 255 255 255 255 255 255 255 255 255 255 255 255 255 
255 255 255 255 255 255 255 255 255 255 255 255 255 255 255 255 255 255 255 255 255 255 255 255 255 255 255 255 255 255 255 255 255 255 255 255 255 255 255 255 255 255 255 255 255 255 255 255 255 255 255 255 255 255 255 255 255 255 255 255 255 255 255 255 255 255 255 255 255 255 255 255 255 255 255 255 255 255 255 255 255 255 255 255 255 255 255 255 255 255 255 255 255 255 255 255 255 255 255 255 
255 255 255 255 255 255 255 255 255 255 255 255 255 255 255 255 255 255 255 255 255 255 255 255 255 255 255 255 255 255 255 255 255 255 255 255 255 255 255 255 255 255 255 255 255 255 255 255 255 255 255 255 255 255 255 255 255 255 255 255 255 255 255 255 255 255 255 255 255 255 255 255 255 255 255 255 255 255 255 255 255 255 255 255 255 255 255 255 255 255 255 255 255 255 255 255 255 255 255 255 
255 255 255 255 255 255 255 255 255 255 255 255 255 255 255 255 255 255 255 255 255 255 255 255 255 255 255 255 255 255 255 255 255 255 255 255 255 255 255 255 255 255 255 255 255 255 255 255 255 255 255 255 255 255 255 255 255 255 255 255 255 255 255 255 255 255 255 255 255 255 255 255 255 255 255 255 255 255 255 255 255 255 255 255 255 255 255 255 255 255 255 255 255 255 255 255 255 255 255 255 
255 255 255 255 255 255 255 255 255 255 255 255 255 255 255 255 255 255 255 255 255 255 255 255 255 255 255 255 255 255 255 255 255 255 255 255 255 255 255 255 255 255 255 255 255 255 255 255 255 255 181 255 255 255 255 255 255 255 255 255 255 255 255 255 255 255 255 255 255 255 255 255 255 255 255 255 255 255 255 255 255 255 255 255 255 255 255 255 255 255 255 255 255 255 255 255 255 255 255 255 
255 255 255 255 255 255 255 255 255 255 255 255 255 255 255 255 255 255 255 255 255 255 255 255 255 255 255 255 255 255 255 255 255 255 255 255 255 255 255 255 255 255 255 255 255 255 255 255 255 139 0 139 255 255 255 255 255 255 255 255 255 255 255 255 255 255 255 255 255 255 255 255 255 255 255 255 255 255 255 255 255 255 255 255 255 255 255 255 255 255 255 255 255 255 255 255 255 255 255 255 
255 255 255 255 255 255 255 191 0 0 0 0 0 0 0 0 0 0 0 0 0 0 0 126 126 126 126 126 31 0 0 0 0 0 0 0 0 0 0 0 0 0 0 0 0 0 0 0 0 0 0 0 0 0 0 0 0 0 0 0 0 0 0 0 0 0 0 0 0 0 0 0 0 0 0 0 0 0 0 0 0 0 0 0 0 0 0 0 0 0 0 0 0 191 255 255 255 255 255 255 
255 255 255 255 255 255 255 191 0 0 0 0 0 0 0 0 0 0 0 0 0 0 0 0 0 0 0 0 23 0 0 0 0 0 0 0 0 0 0 0 0 0 0 0 0 0 0 0 0 0 0 0 0 0 0 0 0 0 0 0 0 0 0 0 0 0 0 0 0 0 0 0 0 0 0 0 0 0 0 0 0 0 0 0 0 0 0 0 0 0 0 0 0 191 255 255 255 255 255 255 
255 255 255 255 255 255 255 191 0 0 0 0 0 0 0 0 0 0 0 0 0 0 0 0 0 0 0 0 23 0 0 0 0 0 0 0 0 0 0 0 0 0 0 0 0 0 0 0 0 0 0 0 0 0 0 0 0 0 0 0 0 0 0 0 0 0 0 0 0 0 0 0 0 0 0 0 0 0 0 0 0 0 0 0 0 0 0 0 0 0 0 0 0 191 255 255 255 255 255 255 
255 255 255 255 255 255 255 191 0 0 0 0 0 0 0 0 0 0 0 0 0 0 0 0 0 0 0 0 23 0 0 0 0 0 0 0 0 0 0 0 0 0 0 0 0 0 0 0 0 0 0 0 0 0 0 0 0 0 0 0 0 0 0 0 0 0 0 0 0 0 0 0 0 0 0 0 0 0 0 0 0 0 0 0 0 0 0 0 0 0 0 0 0 191 255 255 255 255 255 255 
255 255 255 255 255 255 255 191 0 0 0 0 0 0 0 0 0 0 0 0 0 0 0 126 126 126 126 126 31 0 0 0 0 0 0 0 0 0 0 0 0 0 0 0 0 0 0 0 0 0 0 0 0 0 0 0 0 0 0 0 0 0 0 0 0 0 0 0 0 0 0 0 0 0 0 0 0 0 0 0 0 0 0 0 0 0 0 0 0 0 0 0 0 191 255 255 255 255 255 255 
255 255 255 255 255 255 255 191 0 0 0 0 0 191 191 191 191 191 191 191 191 191 191 191 191 191 191 191 191 191 191 191 191 191 191 191 191 191 191 191 191 191 191 105 0 0 0 0 0 0 0 0 0 0 0 0 0 105 192 192 192 192 192 192 192 192 192 192 192 192 192 192 192 192 192 192 192 192 192 192 192 192 192 192 192 192 192 191 0 0 0 0 0 191 255 255 255 255 255 255 
255 255 255 255 255 255 255 191 0 0 0 0 0 191 255 255 255 255 255 255 255 255 255 255 255 255 255 255 255 255 255 255 255 255 255 255 255 255 255 255 255 255 139 0 0 0 0 0 0 0 139 0 0 0 0 0 0 0 139 255 255 255 255 255 255 255 255 255 255 255 255 255 255 255 255 255 255 255 255 255 255 255 255 255 255 255 255 191 0 0 0 0 0 191 255 255 255 255 255 255 
255 255 255 255 255 255 255 191 0 0 0 0 0 191 255 255 255 255 255 255 255 255 255 255 255 255 255 255 255 255 255 255 255 255 255 255 255 255 255 255 255 139 0 0 0 0 0 0 0 139 255 139 0 0 0 0 0 0 0 139 255 255 255 255 255 255 255 255 255 255 255 255 255 255 255 255 255 255 255 255 255 255 255 255 255 255 255 191 0 0 0 0 0 191 255 255 255 255 255 255 
255 255 255 255 255 255 255 191 0 0 0 0 0 191 255 255 255 255 255 255 255 255 255 255 255 255 255 255 255 255 255 255 255 255 255 255 255 255 255 255 139 0 0 0 0 0 0 0 139 255 255 255 139 0 0 0 0 0 0 0 139 255 255 255 255 255 255 255 255 255 255 255 255 255 255 255 255 255 255 255 255 255 255 255 255 255 255 191 0 0 0 0 0 191 255 255 255 255 255 255 
255 255 255 255 255 255 255 191 0 0 0 0 0 191 255 255 255 255 255 255 255 255 255 255 255 255 255 255 255 255 255 255 255 255 255 255 255 255 255 139 0 0 0 0 0 0 0 139 255 255 255 255 255 139 0 0 0 0 0 0 0 139 255 255 255 255 255 255 255 255 255 255 255 255 255 255 255 255 255 255 255 255 255 255 255 255 255 191 0 0 0 0 0 191 255 255 255 255 255 255 
255 255 255 255 255 255 255 191 0 0 0 0 0 191 255 255 255 255 255 255 255 255 255 255 255 255 255 255 255 255 255 255 255 255 255 255 255 255 139 0 0 0 0 0 0 0 139 255 255 255 255 255 255 255 139 0 0 0 0 0 0 0 139 255 255 255 255 255 255 255 255 255 255 255 255 255 255 255 255 255 255 255 255 255 255 255 255 191 0 0 0 0 0 191 255 255 255 255 255 255 
255 255 255 255 255 255 255 191 0 0 0 0 0 191 255 255 255 255 255 255 255 255 255 255 255 255 255 255 255 255 255 255 255 255 255 255 255 139 0 0 0 0 0 0 0 139 255 255 255 255 255 255 255 255 255 139 0 0 0 0 0 0 0 139 255 255 255 255 255 255 255 255 255 255 255 255 255 255 255 255 255 255 255 255 255 255 255 191 0 0 0 0 0 191 255 255 255 255 255 255 
255 255 255 255 255 255 255 191 0 0 0 0 0 191 255 255 255 255 255 255 255 255 255 255 255 255 255 255 255 255 255 255 255 255 255 255 139 0 0 0 0 0 0 0 139 255 255 255 255 255 255 255 255 255 255 255 139 0 0 0 0 0 0 0 139 255 255 255 255 255 255 255 255 255 255 255 255 255 255 255 255 255 255 255 255 255 255 191 0 0 0 0 0 191 255 255 255 255 255 255 
255 255 255 255 255 255 255 191 0 0 0 0 0 191 255 255 255 255 255 255 255 255 255 255 255 255 255 255 255 255 255 255 255 255 255 139 0 0 0 0 0 0 0 139 255 255 255 255 255 255 255 255 255 255 255 255 255 139 0 0 0 0 0 0 0 139 255 255 255 255 255 255 255 255 255 255 255 255 255 255 255 255 255 255 255 255 255 191 0 0 0 0 0 191 255 255 255 255 255 255 
255 255 255 255 255 255 255 191 0 0 0 0 0 191 255 255 255 255 255 255 255 255 255 255 255 255 255 255 255 255 255 255 255 255 139 0 0 0 0 0 0 0 139 255 255 255 255 255 255 255 255 255 255 255 255 255 255 255 139 0 0 0 0 0 0 0 139 255 255 255 255 255 255 255 255 255 255 255 255 255 255 255 255 255 255 255 255 191 0 0 0 0 0 191 255 255 255 255 255 255 
255 255 255 255 255 255 255 191 126 0 0 0 126 191 255 255 255 255 255 255 255 255 255 255 255 255 255 255 255 255 255 255 255 139 0 0 0 0 0 0 0 139 255 255 255 255 255 255 255 255 255 255 255 255 255 255 255 255 255 139 0 0 0 0 0 0 0 139 255 255 255 255 255 255 255 255 255 255 255 255 255 255 255 255 255 255 255 191 0 0 0 0 0 191 255 255 255 255 255 255 
255 255 255 255 255 255 255 191 126 0 0 0 126 191 255 255 255 255 255 255 255 255 255 255 255 255 255 255 255 255 255 255 139 0 0 0 0 0 0 0 139 255 255 255 255 255 255 255 255 255 255 255 255 255 255 255 255 255 255 255 139 0 0 0 0 0 0 0 139 255 255 255 255 255 255 255 255 255 255 255 255 255 255 255 255 255 255 191 0 0 0 0 0 191 255 255 255 255 255 255 
255 255 255 255 255 255 255 191 126 0 0 0 126 191 255 255 255 255 255 255 255 255 255 255 255 255 255 255 255 255 255 139 0 0 0 0 0 0 0 139 255 255 255 255 255 255 255 255 255 255 255 255 255 255 255 255 255 255 255 255 255 139 0 0 0 0 0 0 0 139 255 255 255 255 255 255 255 255 255 255 255 255 255 255 255 255 255 191 0 0 0 0 0 191 255 255 255 255 255 255 
255 255 255 255 255 255 255 191 126 0 0 0 126 191 255 255 255 255 255 255 255 255 255 255 255 255 255 255 255 243 133 0 0 0 0 0 0 0 139 255 255 255 255 255 255 255 255 255 255 255 255 255 255 255 255 255 255 255 255 255 255 255 139 0 0 0 0 0 0 0 139 255 255 255 255 255 255 255 255 255 255 255 255 255 255 255 255 191 0 0 0 0 0 191 255 255 255 255 255 255 
255 255 255 255 255 255 255 191 126 0 0 0 126 191 255 255 255 255 255 255 255 255 255 255 255 255 255 255 243 126 115 31 0 0 0 0 0 139 255 255 255 255 255 255 255 255 255 255 255 255 255 255 255 255 255 255 255 255 255 255 255 255 255 139 0 0 0 0 0 0 0 139 255 255 255 255 255 255 255 255 255 255 255 255 255 255 255 191 0 0 0 0 0 191 255 255 255 255 255 255 
255 255 255 255 255 255 255 191 31 23 23 23 31 191 255 255 255 255 255 255 255 255 255 255 255 255 255 243 126 115 0 0 31 0 0 0 139 255 255 255 255 255 255 255 255 255 255 255 255 255 255 255 255 255 255 255 255 255 255 255 255 255 255 255 139 0 0 0 0 0 0 0 139 255 255 255 255 255 255 255 255 255 255 255 255 255 255 191 0 0 0 0 0 191 255 255 255 255 255 255 
255 255 255 255 255 255 255 191 0 0 0 0 0 191 255 255 255 255 255 255 255 255 255 255 255 255 243 126 115 0 0 0 115 56 0 139 255 255 255 255 255 255 255 255 255 255 255 255 255 255 255 255 255 255 255 255 255 255 255 255 255 255 255 255 255 139 0 0 0 0 0 0 0 139 255 255 255 255 255 255 255 255 255 255 255 255 255 191 0 0 0 0 0 191 255 255 255 255 255 255 
255 255 255 255 255 255 255 191 0 0 0 0 0 191 255 255 255 255 255 255 255 255 255 255 255 255 133 115 0 0 0 115 126 126 133 255 255 255 255 255 255 255 255 255 255 255 255 255 255 255 255 255 255 255 255 255 255 255 255 255 255 255 255 255 255 255 139 0 0 0 0 0 0 0 139 255 255 255 255 255 255 255 255 255 255 255 255 191 0 0 0 0 0 191 255 255 255 255 255 255 
255 255 255 255 255 255 255 191 0 0 0 0 0 191 255 255 255 255 255 255 255 255 255 255 255 139 0 31 0 0 115 126 126 126 243 255 255 255 255 255 255 255 255 255 255 255 255 255 255 255 255 255 255 255 255 255 255 255 255 255 255 255 255 255 255 255 255 139 0 0 0 0 0 0 0 139 255 255 255 255 255 255 255 255 255 255 255 191 0 0 0 0 0 191 255 255 255 255 255 255 
255 255 255 255 255 255 255 191 0 0 0 0 0 191 255 255 255 255 255 255 255 255 255 255 139 0 0 0 31 115 126 126 126 243 255 255 255 255 255 255 255 255 255 255 255 255 255 255 255 255 255 255 255 255 255 255 255 255 255 255 255 255 255 255 255 255 255 255 139 0 0 0 0 0 0 0 139 255 255 255 255 255 255 255 255 255 255 191 0 0 0 0 0 191 255 255 255 255 255 255 
255 255 255 255 255 255 255 191 0 0 0 0 0 191 255 255 255 255 255 255 255 255 255 139 0 0 0 0 0 56 126 126 243 255 255 255 255 255 255 255 255 255 255 255 255 255 255 255 255 255 255 255 255 255 255 255 255 255 255 255 255 255 255 255 255 255 255 255 255 139 0 0 0 0 0 0 0 139 255 255 255 255 255 255 255 255 255 191 0 0 0 0 0 191 255 255 255 255 255 255 
255 255 255 255 255 255 255 191 0 0 0 0 0 191 255 255 255 255 255 255 255 255 139 0 0 0 0 0 0 0 133 243 255 255 255 255 255 255 255 255 255 255 255 255 255 255 255 255 255 255 255 255 255 255 255 255 255 255 255 255 255 255 255 255 255 255 255 255 255 255 139 0 0 0 0 0 0 0 139 255 255 255 255 255 255 255 255 191 0 0 0 0 0 191 255 255 255 255 255 255 
255 255 255 255 255 255 255 191 0 0 0 0 0 191 255 255 255 255 255 255 255 139 0 0 0 0 0 0 0 139 255 255 255 255 255 255 255 255 255 255 255 255 255 255 255 255 255 255 255 255 255 255 255 255 255 255 255 255 255 255 255 255 255 255 255 255 255 255 255 255 255 139 0 0 0 0 0 0 0 139 255 255 255 255 255 255 255 191 0 0 0 0 0 191 255 255 255 255 255 255 
255 255 255 255 255 255 255 191 0 0 0 0 0 191 255 255 255 255 255 255 139 0 0 0 0 0 0 0 139 255 255 255 255 255 255 255 255 255 255 255 255 255 255 255 255 255 255 255 255 255 255 255 255 255 255 255 255 255 255 255 255 255 255 255 255 255 255 255 255 255 255 255 139 0 0 0 0 0 0 0 139 255 255 255 255 255 255 191 0 0 0 0 0 191 255 255 255 255 255 255 
255 255 255 255 255 255 255 191 0 0 0 0 0 191 255 255 255 255 255 139 0 0 0 0 0 0 0 139 255 255 255 255 255 255 255 255 255 255 255 255 255 255 255 255 255 255 255 255 255 255 255 255 255 255 255 255 255 255 255 255 255 255 255 255 255 255 255 255 255 255 255 255 255 139 0 0 0 0 0 0 0 139 255 255 255 255 255 191 0 0 0 0 0 191 255 255 255 255 255 255 
255 255 255 255 255 255 255 191 0 0 0 0 0 191 255 255 255 255 139 0 0 0 0 0 0 0 139 255 255 255 255 255 255 255 255 255 255 255 255 255 255 255 255 255 255 255 255 255 255 255 255 255 255 255 255 255 255 255 255 255 255 255 255 255 255 255 255 255 255 255 255 255 255 255 139 0 0 0 0 0 0 0 139 255 255 255 255 191 0 0 0 0 0 191 255 255 255 255 255 255 
255 255 255 255 255 255 255 191 0 0 0 0 0 191 255 255 255 139 0 0 0 0 0 0 0 139 255 255 255 255 255 255 255 255 255 255 255 255 255 255 255 255 255 255 255 255 255 255 255 255 255 255 255 255 255 255 255 255 255 255 255 255 255 255 255 255 255 255 255 255 255 255 255 255 255 139 0 0 0 0 0 0 0 139 255 255 255 191 0 0 0 0 0 191 255 255 255 255 255 255 
255 255 255 255 255 255 255 191 0 0 0 0 0 191 255 255 139 0 0 0 0 0 0 0 139 255 255 255 255 255 255 255 255 255 255 255 255 255 255 255 255 255 255 255 255 255 255 255 255 255 255 255 255 255 255 255 255 255 255 255 255 255 255 255 255 255 255 255 255 255 255 255 255 255 255 255 139 0 0 0 0 0 0 0 139 255 255 191 0 0 0 0 0 191 255 255 255 255 255 255 
255 255 255 255 255 255 255 191 0 0 0 0 0 191 255 139 0 0 0 0 0 0 0 139 255 255 255 255 255 255 255 255 255 255 255 255 255 255 255 255 255 255 255 255 255 255 255 255 255 255 255 255 255 255 255 255 255 255 255 255 255 255 255 255 255 255 255 255 255 255 255 255 255 255 255 255 255 139 0 0 0 0 0 0 0 139 255 191 0 0 0 0 0 191 255 255 255 255 255 255 
255 255 255 255 255 255 255 191 0 0 0 0 0 191 139 0 0 0 0 0 0 0 139 255 255 255 255 255 255 255 255 255 255 255 255 255 255 255 255 255 255 255 255 255 255 255 255 255 255 255 255 255 255 255 255 255 255 255 255 255 255 255 255 255 255 255 255 255 255 255 255 255 255 255 255 255 255 255 139 0 0 0 0 0 0 0 139 191 0 0 0 0 0 191 255 255 255 255 255 255 
255 255 255 255 255 255 255 191 0 0 0 0 0 104 0 0 0 0 0 0 0 139 255 255 255 255 255 255 255 255 255 255 255 255 255 255 255 255 255 255 255 255 255 255 255 255 255 255 255 255 255 255 255 255 255 255 255 255 255 255 255 255 255 255 255 255 255 255 255 255 255 255 255 255 255 255 255 255 255 139 0 0 0 0 0 0 0 104 0 0 0 0 0 191 255 255 255 255 255 255 
255 255 255 255 255 255 255 191 0 0 0 0 0 0 0 0 0 0 0 0 139 255 255 255 255 255 255 255 255 255 255 255 255 255 255 255 255 255 255 255 255 255 255 255 255 255 255 255 255 255 255 255 255 255 255 255 255 255 255 255 255 255 255 255 255 255 255 255 255 255 255 255 255 255 255 255 255 255 255 255 139 0 0 0 0 0 0 0 0 0 0 0 0 191 255 255 255 255 255 255 
255 255 255 255 255 255 255 191 0 0 0 0 0 0 0 0 0 0 0 139 255 255 255 255 255 255 255 255 255 255 255 255 255 255 255 255 255 255 255 255 255 255 255 255 255 255 255 255 255 255 255 255 255 255 255 255 255 255 255 255 255 255 255 255 255 255 255 255 255 255 255 255 255 255 255 255 255 255 255 255 255 139 0 0 0 0 0 0 0 0 0 0 0 191 255 255 255 255 255 255 
255 255 255 255 255 255 255 191 0 0 0 0 0 0 0 0 0 0 139 255 255 255 255 255 255 255 255 255 255 255 255 255 255 255 255 255 255 255 255 255 255 255 255 255 255 255 255 255 255 255 255 255 255 255 255 255 255 255 255 255 255 255 255 255 255 255 255 255 255 255 255 255 255 255 255 255 255 255 255 255 255 255 139 0 0 0 0 0 0 0 0 0 0 191 255 255 255 255 255 255 
255 255 255 255 255 255 255 191 0 0 0 0 0 0 0 0 0 139 255 255 255 255 255 255 255 255 255 255 255 255 255 255 255 255 255 255 255 255 255 255 255 255 255 255 255 255 255 255 255 255 255 255 255 255 255 255 255 255 255 255 255 255 255 255 255 255 255 255 255 255 255 255 255 255 255 255 255 255 255 255 255 255 255 139 0 0 0 0 0 0 0 0 0 191 255 255 255 255 255 255 
255 255 255 255 255 255 255 191 0 0 0 0 0 0 0 0 139 255 255 255 255 255 255 255 255 255 255 255 255 255 255 255 255 255 255 255 255 255 255 255 255 255 255 255 255 255 255 255 255 255 255 255 255 255 255 255 255 255 255 255 255 255 255 255 255 255 255 255 255 255 255 255 255 255 255 255 255 255 255 255 255 255 255 255 139 0 0 0 0 0 0 0 0 191 255 255 255 255 255 255 
255 255 255 255 255 255 255 104 0 0 0 0 0 0 0 139 255 255 255 255 255 255 255 255 255 255 255 255 255 255 255 255 255 255 255 255 255 255 255 255 255 255 255 255 255 255 255 255 255 255 255 255 255 255 255 255 255 255 255 255 255 255 255 255 255 255 255 255 255 255 255 255 255 255 255 255 255 255 255 255 255 255 255 255 255 139 0 0 0 0 0 0 0 104 255 255 255 255 255 255 
255 255 255 255 255 255 181 0 0 0 0 0 0 0 139 255 255 255 255 255 255 255 255 255 255 255 255 255 255 255 255 255 255 255 255 255 255 255 255 255 255 255 255 255 255 255 255 255 255 255 255 255 255 255 255 255 255 255 255 255 255 255 255 255 255 255 255 255 255 255 255 255 255 255 255 255 255 255 255 255 255 255 255 255 255 255 139 0 0 0 0 0 0 0 181 255 255 255 255 255 
255 255 255 255 255 255 255 104 0 0 0 0 0 0 0 139 255 255 255 255 255 255 255 255 255 255 255 255 255 255 255 255 255 255 255 255 255 255 255 255 255 255 255 255 255 255 255 255 255 255 255 255 255 255 255 255 255 255 255 255 255 255 255 255 255 255 255 255 255 255 255 255 255 255 255 255 255 255 255 255 255 255 255 255 255 139 0 0 0 0 0 0 0 104 255 255 255 255 255 255 
255 255 255 255 255 255 255 191 0 0 0 0 0 0 0 0 139 255 255 255 255 255 255 255 255 255 255 255 255 255 255 255 255 255 255 255 255 255 255 255 255 255 255 255 255 255 255 255 255 255 255 255 255 255 255 255 255 255 255 255 255 255 255 255 255 255 255 255 255 255 255 255 255 255 255 255 255 255 255 255 255 255 255 255 139 0 0 0 0 0 0 0 0 191 255 255 255 255 255 255 
255 255 255 255 255 255 255 191 0 0 0 0 0 0 0 0 0 139 255 255 255 255 255 255 255 255 255 255 255 255 255 255 255 255 255 255 255 255 255 255 255 255 255 255 255 255 255 255 255 255 255 255 255 255 255 255 255 255 255 255 255 255 255 255 255 255 255 255 255 255 255 255 255 255 255 255 255 255 255 255 255 255 255 139 0 0 0 0 0 0 0 0 0 191 255 255 255 255 255 255 
255 255 255 255 255 255 255 191 0 0 0 0 0 0 0 0 0 0 139 255 255 255 255 255 255 255 255 255 255 255 255 255 255 255 255 255 255 255 255 255 255 255 255 255 255 255 255 255 255 255 255 255 255 255 255 255 255 255 255 255 255 255 255 255 255 255 255 255 255 255 255 255 255 255 255 255 255 255 255 255 255 255 139 0 0 0 0 0 0 0 0 0 0 191 255 255 255 255 255 255 
255 255 255 255 255 255 255 191 0 0 0 0 0 0 0 0 0 0 0 139 255 255 255 255 255 255 255 255 255 255 255 255 255 255 255 255 255 255 255 255 255 255 255 255 255 255 255 255 255 255 255 255 255 255 255 255 255 255 255 255 255 255 255 255 255 255 255 255 255 255 255 255 255 255 255 255 255 255 255 255 255 139 0 0 0 0 0 0 0 0 0 0 0 191 255 255 255 255 255 255 
255 255 255 255 255 255 255 191 0 0 0 0 0 0 0 0 0 0 0 0 139 255 255 255 255 255 255 255 255 255 255 255 255 255 255 255 255 255 255 255 255 255 255 255 255 255 255 255 255 255 255 255 255 255 255 255 255 255 255 255 255 255 255 255 255 255 255 255 255 255 255 255 255 255 255 255 255 255 255 255 139 0 0 0 0 0 0 0 0 0 0 0 0 191 255 255 255 255 255 255 
255 255 255 255 255 255 255 191 0 0 0 0 0 104 0 0 0 0 0 0 0 139 255 255 255 255 255 255 255 255 255 255 255 255 255 255 255 255 255 255 255 255 255 255 255 255 255 255 255 255 255 255 255 255 255 255 255 255 255 255 255 255 255 255 255 255 255 255 255 255 255 255 255 255 255 255 255 255 255 139 0 0 0 0 0 0 0 104 0 0 0 0 0 191 255 255 255 255 255 255 
255 255 255 255 255 255 255 191 0 0 0 0 0 191 139 0 0 0 0 0 0 0 139 255 255 255 255 255 255 255 255 255 255 255 255 255 255 255 255 255 255 255 255 255 255 255 255 255 255 255 255 255 255 255 255 255 255 255 255 255 255 255 255 255 255 255 255 255 255 255 255 255 255 255 255 255 255 255 139 0 0 0 0 0 0 0 139 191 0 0 0 0 0 191 255 255 255 255 255 255 
255 255 255 255 255 255 255 191 0 0 0 0 0 191 255 139 0 0 0 0 0 0 0 139 255 255 255 255 255 255 255 255 255 255 255 255 255 255 255 255 255 255 255 255 255 255 255 255 255 255 255 255 255 255 255 255 255 255 255 255 255 255 255 255 255 255 255 255 255 255 255 255 255 255 255 255 255 139 0 0 0 0 0 0 0 139 255 191 0 0 0 0 0 191 255 255 255 255 255 255 
255 255 255 255 255 255 255 191 0 0 0 0 0 191 255 255 139 0 0 0 0 0 0 0 139 255 255 255 255 255 255 255 255 255 255 255 255 255 255 255 255 255 255 255 255 255 255 255 255 255 255 255 255 255 255 255 255 255 255 255 255 255 255 255 255 255 255 255 255 255 255 255 255 255 255 255 139 0 0 0 0 0 0 0 139 255 255 191 0 0 0 0 0 191 255 255 255 255 255 255 
255 255 255 255 255 255 255 191 0 0 0 0 0 191 255 255 255 139 0 0 0 0 0 0 0 139 255 255 255 255 255 255 255 255 255 255 255 255 255 255 255 255 255 255 255 255 255 255 255 255 255 255 255 255 255 255 255 255 255 255 255 255 255 255 255 255 255 255 255 255 255 255 255 255 255 139 0 0 0 0 0 0 0 139 255 255 255 191 0 0 0 0 0 191 255 255 255 255 255 255 
255 255 255 255 255 255 255 191 0 0 0 0 0 191 255 255 255 255 139 0 0 0 0 0 0 0 139 255 255 255 255 255 255 255 255 255 255 255 255 255 255 255 255 255 255 255 255 255 255 255 255 255 255 255 255 255 255 255 255 255 255 255 255 255 255 255 255 255 255 255 255 255 255 255 139 0 0 0 0 0 0 0 139 255 255 255 255 191 0 0 0 0 0 191 255 255 255 255 255 255 
255 255 255 255 255 255 255 191 0 0 0 0 0 191 255 255 255 255 255 139 0 0 0 0 0 0 0 139 255 255 255 255 255 255 255 255 255 255 255 255 255 255 255 255 255 255 255 255 255 255 255 255 255 255 255 255 255 255 255 255 255 255 255 255 255 255 255 255 255 255 255 255 255 139 0 0 0 0 0 0 0 139 255 255 255 255 255 191 0 0 0 0 0 191 255 255 255 255 255 255 
255 255 255 255 255 255 255 191 0 0 0 0 0 191 255 255 255 255 255 255 139 0 0 0 0 0 0 0 139 255 255 255 255 255 255 255 255 255 255 255 255 255 255 255 255 255 255 255 255 255 255 255 255 255 255 255 255 255 255 255 255 255 255 255 255 255 255 255 255 255 255 255 139 0 0 0 0 0 0 0 139 255 255 255 255 255 255 191 0 0 0 0 0 191 255 255 255 255 255 255 
255 255 255 255 255 255 255 191 0 0 0 0 0 191 255 255 255 255 255 255 255 139 0 0 0 0 0 0 0 139 255 255 255 255 255 255 255 255 255 255 255 255 255 255 255 255 255 255 255 255 255 255 255 255 255 255 255 255 255 255 255 255 255 255 255 255 255 255 255 255 255 139 0 0 0 0 0 0 0 139 255 255 255 255 255 255 255 191 0 0 0 0 0 191 255 255 255 255 255 255 
255 255 255 255 255 255 255 191 0 0 0 0 0 191 255 255 255 255 255 255 255 255 139 0 0 0 0 0 0 0 139 255 255 255 255 255 255 255 255 255 255 255 255 255 255 255 255 255 255 255 255 255 255 255 255 255 255 255 255 255 255 255 255 255 255 255 255 255 255 255 139 0 0 0 0 0 0 0 139 255 255 255 255 255 255 255 255 191 0 0 0 0 0 191 255 255 255 255 255 255 
255 255 255 255 255 255 255 191 0 0 0 0 0 191 255 255 255 255 255 255 255 255 255 139 0 0 0 0 0 0 0 139 255 255 255 255 255 255 255 255 255 255 255 255 255 255 255 255 255 255 255 255 255 255 255 255 255 255 255 255 255 255 255 255 255 255 255 255 255 139 0 0 0 0 0 0 0 139 255 255 255 255 255 255 255 255 255 191 0 0 0 0 0 191 255 255 255 255 255 255 
255 255 255 255 255 255 255 191 0 0 0 0 0 191 255 255 255 255 255 255 255 255 255 255 139 0 0 0 0 0 0 0 139 255 255 255 255 255 255 255 255 255 255 255 255 255 255 255 255 255 255 255 255 255 255 255 255 255 255 255 255 255 255 255 255 255 255 255 139 0 0 0 0 0 0 0 139 255 255 255 255 255 255 255 255 255 255 191 0 0 0 0 0 191 255 255 255 255 255 255 
255 255 255 255 255 255 255 191 0 0 0 0 0 191 255 255 255 255 255 255 255 255 255 255 255 139 0 0 0 0 0 0 0 139 255 255 255 255 255 255 255 255 255 255 255 255 255 255 255 255 255 255 255 255 255 255 255 255 255 255 255 255 255 255 255 255 255 139 0 0 0 0 0 0 0 139 255 255 255 255 255 255 255 255 255 255 255 191 0 0 0 0 0 191 255 255 255 255 255 255 
255 255 255 255 255 255 255 191 0 0 0 0 0 191 255 255 255 255 255 255 255 255 255 255 255 255 139 0 0 0 0 0 0 0 139 255 255 255 255 255 255 255 255 255 255 255 255 255 255 255 255 255 255 255 255 255 255 255 255 255 255 255 255 255 255 255 139 0 0 0 0 0 0 0 139 255 255 255 255 255 255 255 255 255 255 255 255 191 0 0 0 0 0 191 255 255 255 255 255 255 
255 255 255 255 255 255 255 191 0 0 0 0 0 191 255 255 255 255 255 255 255 255 255 255 255 255 255 139 0 0 0 0 0 0 0 139 255 255 255 255 255 255 255 255 255 255 255 255 255 255 255 255 255 255 255 255 255 255 255 255 255 255 255 255 255 139 0 0 0 0 0 0 0 139 255 255 255 255 255 255 255 255 255 255 255 255 255 191 0 0 0 0 0 191 255 255 255 255 255 255 
255 255 255 255 255 255 255 191 0 0 0 0 0 191 255 255 255 255 255 255 255 255 255 255 255 255 255 255 139 0 0 0 0 0 0 0 139 255 255 255 255 255 255 255 255 255 255 255 255 255 255 255 255 255 255 255 255 255 255 255 255 255 255 255 139 0 0 0 0 0 0 0 139 255 255 255 255 255 255 255 255 255 255 255 255 255 255 191 0 0 0 0 0 191 255 255 255 255 255 255 
255 255 255 255 255 255 255 191 0 0 0 0 0 191 255 255 255 255 255 255 255 255 255 255 255 255 255 255 255 139 0 0 0 0 0 0 0 139 255 255 255 255 255 255 255 255 255 255 255 255 255 255 255 255 255 255 255 255 255 255 255 255 255 139 0 0 0 0 0 0 0 139 255 255 255 255 255 255 255 255 255 255 255 255 255 255 255 191 0 0 0 0 0 191 255 255 255 255 255 255 
255 255 255 255 255 255 255 191 0 0 0 0 0 191 255 255 255 255 255 255 255 255 255 255 255 255 255 255 255 255 139 0 0 0 0 0 0 0 139 255 255 255 255 255 255 255 255 255 255 255 255 255 255 255 255 255 255 255 255 255 255 255 139 0 0 0 0 0 0 0 139 255 255 255 255 255 255 255 255 255 255 255 255 255 255 255 255 191 0 0 0 0 0 191 255 255 255 255 255 255 
255 255 255 255 255 255 255 191 0 0 0 0 0 191 255 255 255 255 255 255 255 255 255 255 255 255 255 255 255 255 255 139 0 0 0 0 0 0 0 139 255 255 255 255 255 255 255 255 255 255 255 255 255 255 255 255 255 255 255 255 255 139 0 0 0 0 0 0 0 139 255 255 255 255 255 255 255 255 255 255 255 255 255 255 255 255 255 191 0 0 0 0 0 191 255 255 255 255 255 255 
255 255 255 255 255 255 255 191 0 0 0 0 0 191 255 255 255 255 255 255 255 255 255 255 255 255 255 255 255 255 255 255 139 0 0 0 0 0 0 0 139 255 255 255 255 255 255 255 255 255 255 255 255 255 255 255 255 255 255 255 139 0 0 0 0 0 0 0 139 255 255 255 255 255 255 255 255 255 255 255 255 255 255 255 255 255 255 191 0 0 0 0 0 191 255 255 255 255 255 255 
255 255 255 255 255 255 255 191 0 0 0 0 0 191 255 255 255 255 255 255 255 255 255 255 255 255 255 255 255 255 255 255 255 139 0 0 0 0 0 0 0 139 255 255 255 255 255 255 255 255 255 255 255 255 255 255 255 255 255 139 0 0 0 0 0 0 0 139 255 255 255 255 255 255 255 255 255 255 255 255 255 255 255 255 255 255 255 191 0 0 0 0 0 191 255 255 255 255 255 255 
255 255 255 255 255 255 255 191 0 0 0 0 0 191 255 255 255 255 255 255 255 255 255 255 255 255 255 255 255 255 255 255 255 255 139 0 0 0 0 0 0 0 139 255 255 255 255 255 255 255 255 255 255 255 255 255 255 255 139 0 0 0 0 0 0 0 139 255 255 255 255 255 255 255 255 255 255 255 255 255 255 255 255 255 255 255 255 191 0 0 0 0 0 191 255 255 255 255 255 255 
255 255 255 255 255 255 255 191 0 0 0 0 0 191 255 255 255 255 255 255 255 255 255 255 255 255 255 255 255 255 255 255 255 255 255 139 0 0 0 0 0 0 0 139 255 255 255 255 255 255 255 255 255 255 255 255 255 139 0 0 0 0 0 0 0 139 255 255 255 255 255 255 255 255 255 255 255 255 255 255 255 255 255 255 255 255 255 191 0 0 0 0 0 191 255 255 255 255 255 255 
255 255 255 255 255 255 255 191 0 0 0 0 0 191 255 255 255 255 255 255 255 255 255 255 255 255 255 255 255 255 255 255 255 255 255 255 139 0 0 0 0 0 0 0 139 255 255 255 255 255 255 255 255 255 255 255 139 0 0 0 0 0 0 0 139 255 255 255 255 255 255 255 255 255 255 255 255 255 255 255 255 255 255 255 255 255 255 191 0 0 0 0 0 191 255 255 255 255 255 255 
255 255 255 255 255 255 255 191 0 0 0 0 0 191 255 255 255 255 255 255 255 255 255 255 255 255 255 255 255 255 255 255 255 255 255 255 255 139 0 0 0 0 0 0 0 139 255 255 255 255 255 255 255 255 255 139 0 0 0 0 0 0 0 139 255 255 255 255 255 255 255 255 255 255 255 255 255 255 255 255 255 255 255 255 255 255 255 191 0 0 0 0 0 191 255 255 255 255 255 255 
255 255 255 255 255 255 255 191 0 0 0 0 0 191 255 255 255 255 255 255 255 255 255 255 255 255 255 255 255 255 255 255 255 255 255 255 255 255 139 0 0 0 0 0 0 0 139 255 255 255 255 255 255 255 139 0 0 0 0 0 0 0 139 255 255 255 255 255 255 255 255 255 255 255 255 255 255 255 255 255 255 255 255 255 255 255 255 191 0 0 0 0 0 191 255 255 255 255 255 255 
255 255 255 255 255 255 255 191 0 0 0 0 0 191 255 255 255 255 255 255 255 255 255 255 255 255 255 255 255 255 255 255 255 255 255 255 255 255 255 139 0 0 0 0 0 0 0 139 255 255 255 255 255 139 0 0 0 0 0 0 0 139 255 255 255 255 255 255 255 255 255 255 255 255 255 255 255 255 255 255 255 255 255 255 255 255 255 191 0 0 0 0 0 191 255 255 255 255 255 255 
255 255 255 255 255 255 255 191 0 0 0 0 0 191 255 255 255 255 255 255 255 255 255 255 255 255 255 255 255 255 255 255 255 255 255 255 255 255 255 255 139 0 0 0 0 0 0 0 139 255 255 255 139 0 0 0 0 0 0 0 139 255 255 255 255 255 255 255 255 255 255 255 255 255 255 255 255 255 255 255 255 255 255 255 255 255 255 191 0 0 0 0 0 191 255 255 255 255 255 255 
255 255 255 255 255 255 255 191 0 0 0 0 0 191 255 255 255 255 255 255 255 255 255 255 255 255 255 255 255 255 255 255 255 255 255 255 255 255 255 255 255 139 0 0 0 0 0 0 0 139 255 139 0 0 0 0 0 0 0 139 255 255 255 255 255 255 255 255 255 255 255 255 255 255 255 255 255 255 255 255 255 255 255 255 255 255 255 191 0 0 0 0 0 191 255 255 255 255 255 255 
255 255 255 255 255 255 255 191 0 0 0 0 0 191 255 255 255 255 255 255 255 255 255 255 255 255 255 255 255 255 255 255 255 255 255 255 255 255 255 255 255 255 139 0 0 0 0 0 0 0 139 0 0 0 0 0 0 0 139 255 255 255 255 255 255 255 255 255 255 255 255 255 255 255 255 255 255 255 255 255 255 255 255 255 255 255 255 191 0 0 0 0 0 191 255 255 255 255 255 255 
255 255 255 255 255 255 255 191 0 0 0 0 0 191 255 255 255 255 255 255 255 255 255 255 255 255 255 255 255 255 255 255 255 255 255 255 255 255 255 255 255 255 255 139 0 0 0 0 0 0 0 0 0 0 0 0 0 139 255 255 255 255 255 255 255 255 255 255 255 255 255 255 255 255 255 255 255 255 255 255 255 255 255 255 255 255 255 191 0 0 0 0 0 191 255 255 255 255 255 255 
255 255 255 255 255 255 255 191 0 0 0 0 0 0 0 0 0 0 0 0 0 0 0 0 0 0 0 0 0 0 0 0 0 0 0 0 0 0 0 0 0 0 0 0 0 0 0 0 0 0 0 0 0 0 0 0 0 0 0 0 0 0 0 0 0 0 0 0 0 0 0 0 0 0 0 0 0 0 0 0 0 0 0 0 0 0 0 0 0 0 0 0 0 191 255 255 255 255 255 255 
255 255 255 255 255 255 255 191 0 0 0 0 0 0 0 0 0 0 0 0 0 0 0 0 0 0 0 0 0 0 0 0 0 0 0 0 0 0 0 0 0 0 0 0 0 0 0 0 0 0 0 0 0 0 0 0 0 0 0 0 0 0 0 0 0 0 0 0 0 0 0 0 0 0 0 0 0 0 0 0 0 0 0 0 0 0 0 0 0 0 0 0 0 191 255 255 255 255 255 255 
255 255 255 255 255 255 255 191 0 0 0 0 0 0 0 0 0 0 0 0 0 0 0 0 0 0 0 0 0 0 0 0 0 0 0 0 0 0 0 0 0 0 0 0 0 0 0 0 0 0 0 0 0 0 0 0 0 0 0 0 0 0 0 0 0 0 0 0 0 0 0 0 0 0 0 0 0 0 0 0 0 0 0 0 0 0 0 0 0 0 0 0 0 191 255 255 255 255 255 255 
255 255 255 255 255 255 255 255 0 0 0 0 0 0 0 0 0 0 0 0 0 0 0 0 0 0 0 0 0 0 0 0 0 0 0 0 0 0 0 0 0 0 0 0 0 0 0 0 0 0 0 0 0 0 0 0 0 0 0 0 0 0 0 0 0 0 0 0 0 0 0 0 0 0 0 0 0 0 0 0 0 0 0 0 0 0 0 0 0 0 0 0 0 191 255 255 255 255 255 255 
255 255 255 255 255 255 255 255 0 0 0 0 0 0 0 0 0 0 0 0 0 0 0 0 0 0 0 0 0 0 0 0 0 0 0 0 0 0 0 0 0 0 0 0 0 0 0 0 0 0 0 0 0 0 0 0 0 0 0 0 0 0 0 0 0 0 0 0 0 0 0 0 0 0 0 0 0 0 0 0 0 0 0 0 0 0 0 0 0 0 0 0 0 191 255 255 255 255 255 255 
255 255 255 255 255 255 255 233 191 191 191 191 191 191 191 191 191 191 191 191 191 191 191 191 191 191 191 191 191 191 191 191 191 191 191 191 191 191 191 191 191 191 191 191 191 191 191 191 191 104 0 104 191 191 191 191 191 191 191 191 191 191 191 191 191 191 191 191 191 191 191 191 191 191 191 191 191 191 191 191 191 191 191 191 191 191 191 191 191 191 191 191 191 233 255 255 255 255 255 255 
255 255 255 255 255 255 255 255 255 255 255 255 255 255 255 255 255 255 255 255 255 255 255 255 255 255 255 255 255 255 255 255 255 255 255 255 255 255 255 255 255 255 255 255 255 255 255 255 255 255 181 255 255 255 255 255 255 255 255 255 255 255 255 255 255 255 255 255 255 255 255 255 255 255 255 255 255 255 255 255 255 255 255 255 255 255 255 255 255 255 255 255 255 255 255 255 255 255 255 255 
255 255 255 255 255 255 255 255 255 255 255 255 255 255 255 255 255 255 255 255 255 255 255 255 255 255 255 255 255 255 255 255 255 255 255 255 255 255 255 255 255 255 255 255 255 255 255 255 255 255 255 255 255 255 255 255 255 255 255 255 255 255 255 255 255 255 255 255 255 255 255 255 255 255 255 255 255 255 255 255 255 255 255 255 255 255 255 255 255 255 255 255 255 255 255 255 255 255 255 255 
255 255 255 255 255 255 255 255 255 255 255 255 255 255 255 255 255 255 255 255 255 255 255 255 255 255 255 255 255 255 255 255 255 255 255 255 255 255 255 255 255 255 255 255 255 255 255 255 255 255 255 255 255 255 255 255 255 255 255 255 255 255 255 255 255 255 255 255 255 255 255 255 255 255 255 255 255 255 255 255 255 255 255 255 255 255 255 255 255 255 255 255 255 255 255 255 255 255 255 255 
255 255 255 255 255 255 255 255 255 255 255 255 255 255 255 255 255 255 255 255 255 255 255 255 255 255 255 255 255 255 255 255 255 255 255 255 255 255 255 255 255 255 255 255 255 255 255 255 255 255 255 255 255 255 255 255 255 255 255 255 255 255 255 255 255 255 255 255 255 255 255 255 255 255 255 255 255 255 255 255 255 255 255 255 255 255 255 255 255 255 255 255 255 255 255 255 255 255 255 255 
255 255 255 255 255 255 255 255 255 255 255 255 255 255 255 255 255 255 255 255 255 255 255 255 255 255 255 255 255 255 255 255 255 255 255 255 255 255 255 255 255 255 255 255 255 255 255 255 255 255 255 255 255 255 255 255 255 255 255 255 255 255 255 255 255 255 255 255 255 255 255 255 255 255 255 255 255 255 255 255 255 255 255 255 255 255 255 255 255 255 255 255 255 255 255 255 255 255 255 255 
255 255 255 255 255 255 255 255 255 255 255 255 255 255 255 255 255 255 255 255 255 255 255 255 255 255 255 255 255 255 255 255 255 255 255 255 255 255 255 255 255 255 255 255 255 255 255 255 255 255 255 255 255 255 255 255 255 255 255 255 255 255 255 255 255 255 255 255 255 255 255 255 255 255 255 255 255 255 255 255 255 255 255 255 255 255 255 255 255 255 255 255 255 255 255 255 255 255 255 255 
